<svg xmlns="http://www.w3.org/2000/svg" viewBox="378.66 306 266.76 380.93">
  <path fill="#0e1f2e" d="M511 306c2.8899.3362 3.9213.9183 5.9727 3.0469l2.0898 2.7031 2.3594 2.9922 1.2558 1.6006c2.313 2.899 4.7274 5.7116 7.1348 8.5322A1339 1339 0 0 1 535 331l2.3242 2.7578C539 336 539 336 539 338h2c1.5104 1.689 2.7297 3.523 4.0098 5.3923 1.9413 2.69 1.9413 2.69 4.502 4.9744 7.996 8.2193 8.4764 15.5578 8.3575 26.7716-.0893 3.6016-.2265 7.1993-.3693 10.7992-.1002 3.6312-.186 7.2624-.2633 10.8942a450 450 0 0 1-.2068 6.7413c-.1671 5.2496-.215 9.5207 1.9701 14.427 2.3453.7696 2.3453.7696 5 1 2.6354-2.0747 3.8756-4.457 5.2695-7.4648l1.2466-2.6595 1.2964-2.8132a6728 6728 0 0 1 2.668-5.6953l1.3022-2.7861c2.314-4.9064 4.7555-9.7475 7.2173-14.5811h3a7692 7692 0 0 1 3.125 15l.475 2.2882c1.7866 8.6257 3.5283 17.2567 5.1305 25.9188l.4094 2.2122a2033 2033 0 0 1 1.9055 10.4851l.6929 3.8027.595 3.3274c1.0697 5.3586 1.0697 5.3586 4.5417 9.2156 2.0289.716 4.0216 1.2993 6.125 1.75l4-7c3.8042 1.301 6.1313 2.776 8.918 5.6602l2.1113 2.1543 2.1582 2.248a2077 2077 0 0 0 4.293 4.4102l1.903 1.9768C633.935 468.091 633.935 468.091 636 469c1.0019 3.0057 1.1475 5.0763 1.1895 8.2205l.0506 3.2442.0412 3.5314.0557 3.687c.0588 3.9181.1114 7.8362.163 11.7544.2085 15.3049.4375 30.6098.875 45.9102l.075 3.46c.2847 8.876 2.0512 16.06 5.55 24.1923 1.1847 3.6122 1.2357 7.1494 1.3125 10.9375l.1133 3.6523c-.5168 4.1392-1.4616 5.5136-4.4258 8.4102-2.2075 1.6185-4.3797 3.1066-6.6875 4.5625q-2.0332 1.3192-4.0625 2.6445l-2.125 1.3853c-3.49 2.312-6.9011 4.7319-10.3125 7.1577l-4.2969 3.0508-2.2207 1.5766c-3.2223 2.2783-6.4599 4.5346-9.697 6.7918-9.5141 6.6356-18.9465 13.3749-28.3318 20.1912-2.3757 1.719-4.7594 3.4265-7.145 5.1318l-2.439 1.7478a1693 1693 0 0 1-4.583 3.272c-6.028 4.3275-11.9236 8.637-16.4116 14.613-3.848 4.5516-8.1386 6.073-13.6875 7.875-1.6708.6562-3.3387 1.3201-5 2v2c-1.9766 1.7617-1.9766 1.7617-4.625 3.6875l-2.6016 1.9492c-3.5433 1.7417-5.0443 1.5886-8.7734.3633-2.7187-1.9687-2.7187-1.9687-5.5-4.5-4.3015-3.7944-8.681-7.052-13.5625-10.0625-5.4903-3.4026-10.4327-7.1611-15.379-11.332-3.1154-2.5638-6.3791-4.825-9.707-7.1016-4.3221-3.0374-8.5117-6.2476-12.7214-9.4382-5.4904-4.1395-11.1177-8.026-16.8489-11.8235L432 630v-2l-2.0469-.6953c-3.7365-1.6508-6.8717-3.8343-10.2031-6.1797l-2.1025-1.4622c-5.87-4.0907-11.7084-8.2274-17.5396-12.3732-5.175-3.6686-10.4321-7.1696-15.7876-10.5708-2.3853-1.767-3.8508-3.1437-5.3203-5.7188-.3633-2.5078-.3633-2.5078-.3125-5.125l.0117-2.6328C379 581 379 581 381 579c.586-2.5082 1.0758-4.9643 1.5-7.5q.3582-2.047.7188-4.0937l.3484-2.0733c.2684-1.4467.5751-2.8875.941-4.3126 2.1156-8.6167 1.7234-17.3681 1.652-26.1727a4511 4511 0 0 1-.0158-5.2492c-.0132-4.5773-.0376-9.1545-.0654-13.7317-.0433-7.3497-.0728-14.6994-.096-22.0492-.0102-2.5632-.0273-5.1263-.045-7.6894q-.0102-2.3472-.0198-4.6944l-.0204-2.1582c-.007-3.0487.1293-5.357 1.1022-8.2756h2l1-3c1.5313-1.5078 1.5313-1.5078 3.5-3.125 4.0878-3.4408 7.7593-7.1681 11.4219-11.0547 2.11-1.8482 3.3388-2.4378 6.0781-2.8203l4 7c1.2888-.6092 2.5556-1.2649 3.8125-1.9375l2.1445-1.0898c5.299-5.1166 5.9422-14.7448 7.2344-21.711l.5781-3.0364c.6035-3.1782 1.1982-6.358 1.793-9.5378q.6037-3.1828 1.209-6.3652.5853-3.0927 1.17-6.1856l.5709-3.0054c.7638-4.0636 1.5147-8.1167 2.0691-12.2148l.4458-3.272.3006-2.657C437 385 437 385 439.0608 383.7097L441 383c2.581 4.9286 4.9829 9.9227 7.2305 15.0117l1.1936 2.6983a876 876 0 0 1 2.3647 5.4199l1.1253 2.5537.9985 2.2986c1.1218 2.0816 2.3365 3.4451 4.0874 5.0178l3-2h4v-2l2-2c.2095-2.2086.2095-2.2086.0366-4.7783l-.1178-3.0174-.1454-3.2824a2566 2566 0 0 1-.1836-6.8985c-.0981-3.6226-.2132-7.2404-.3852-10.8603-1.015-22.27-1.015-22.27 4.8642-29.654 2.0163-2.1613 4.1326-4.1373 6.373-6.0636 2.7155-2.519 4.8485-5.4864 7.0582-8.4455 8.3326-10.7572 17.3313-20.9515 26.5-31"/>
  <path fill="#a5bdc1" d="M511 306c2.8899.3362 3.9213.9183 5.9727 3.0469l2.0898 2.7031 2.3594 2.9922 1.2558 1.6006c2.313 2.899 4.7274 5.7116 7.1348 8.5322A1339 1339 0 0 1 535 331l2.3242 2.7578C539 336 539 336 539 338h2c1.518 1.737 2.7694 3.6126 4.0789 5.5115 1.8368 2.5366 1.8368 2.5366 4.1662 4.4934 7.2661 6.948 8.0006 13.6442 8.3959 23.3531.067 3.3617.0672 6.7173.0465 10.0795l.0147 3.4829c-.0577 24.87-8.2018 42.1906-21.3714 62.676-5.2342 9.4167-4.1158 20.6324-4.1433 31.0911a2887 2887 0 0 1-.0762 6.209c-.0624 5.0346-.095 10.0686-.1113 15.1035a1400 1400 0 0 1-4.7305-2.3242l-2.6609-1.3074c-2.4193-1.269-4.6587-2.6536-6.9211-4.1809-2.1795-1.3703-3.6709-2.1833-6.1875-2.8125-5.453 1.3633-9.8965 5.172-14.375 8.4375C494 500 494 500 492 500l.1621-3.5154c1.1898-29.8182-2.6925-51.6004-19.225-76.6047-6.3257-10.5358-5.8744-20.9756-5.63-32.9688.0683-3.432.082-6.8612.0874-10.294q.0284-3.293.0664-6.5858l.0197-3.0873c.1633-6.978 1.4211-11.905 6.1561-17.2409l1.4866-1.6994 1.5642-1.7537a2409 2409 0 0 0 3.2578-3.7305l1.5947-1.8257c1.9012-2.2057 3.719-4.4702 5.5225-6.7563C494.6792 324.3139 502.7201 315.0568 511 306"/>
  <path fill="#243a55" d="M547 527c3.24.81 5.2006 1.5132 8.0273 3.082l2.3658 1.3057 2.5444 1.4248 2.685 1.4912c15.321 8.5335 30.4923 17.331 45.6775 26.1025a4592 4592 0 0 0 24.116 13.8262 759 759 0 0 1 4.6257 2.657c1.6273.9229 3.2929 1.7779 4.9661 2.6145C644 581 644 581 644.9102 583.418c.1747 3.1762.0459 5.5362-.9102 8.5821-2.8519 2.9347-6.291 4.7008-9.834 6.7046-4.4879 2.684-8.7067 5.7841-12.9785 8.7954a7728 7728 0 0 1-6.0156 4.1953l-3.0801 2.1494a5310 5310 0 0 1-9.2012 6.3975C592.5422 627.4246 582.2161 634.6303 572 642l-2.2642 1.6309a10059 10059 0 0 0-11.8999 8.584l-1.9516 1.4099c-1.3407.9785-2.6504 2.0001-3.9365 3.0493C550 658 550 658 547 658zm-70 0v131c-3.6123-.903-4.9864-1.485-7.836-3.5898l-2.205-1.6128-2.334-1.7349a15235 15235 0 0 0-4.8672-3.5664l-2.4365-1.7935c-3.2542-2.3869-6.5344-4.736-9.8213-7.0776l-3.0937-2.211c-4.4506-3.1638-8.9311-6.2851-13.4063-9.414q-2.4476-1.7146-4.8945-3.4297c-10.8787-7.6233-10.8787-7.6233-21.793-15.1953l-2.9922-2.1094c-2.575-1.794-5.219-3.4474-7.8906-5.0937-11.565-7.3117-11.565-7.3117-13.8242-12.1719-.259-3.2314.1552-5.0187 1.3945-8 1.6858-1.5669 1.6858-1.5669 3.8164-2.8828l2.459-1.5278c5.0514-2.9467 10.154-5.7879 15.2871-8.5894a3098 3098 0 0 0 7.246-3.996l1.8379-1.0163c5.8785-3.261 11.6843-6.642 17.4786-10.0502 11.3032-6.6438 22.7166-13.0806 34.1831-19.438a600 600 0 0 0 5.3408-3.0107l2.4488-1.3911 2.1447-1.2303C475 527 475 527 477 527"/>
  <path fill="#95afb6" d="m511 306 4 1-1 2h-2v180l-11 6c-2.3406 1.6564-4.6767 3.3193-7 5h-2l.1621-3.5154c1.1898-29.8182-2.6925-51.6004-19.225-76.6047-6.3257-10.5358-5.8744-20.9756-5.63-32.9688.0683-3.432.082-6.8612.0874-10.294q.0284-3.293.0664-6.5858l.0197-3.0873c.1633-6.978 1.4211-11.905 6.1561-17.2409l1.4866-1.6994 1.5642-1.7537a2409 2409 0 0 0 3.2578-3.7305l1.5947-1.8257c1.9012-2.2057 3.719-4.4702 5.5225-6.7563C494.6792 324.3139 502.7201 315.0568 511 306"/>
  <path fill="#688493" d="M439 383h2c3.4109 6.5133 6.4806 13.174 9.5 19.875l1.113 2.4639c1.5531 3.4634 3.0966 6.9138 4.4717 10.4526 2.237 5.715 4.8499 10.875 8.1223 16.06C479.4955 456.7893 478.9597 480.402 477 509l-2.0002 1.1299q-4.5313 2.5598-9.0623 5.1201l-3.1465 1.7773-3.0762 1.7383-3.0044 1.6934c-2.2092 1.256-4.3963 2.541-6.5815 3.8379-3.0088 1.6377-5.8755 2.6665-9.1289 3.7031l.0986-3.487c.5746-24.2218-.2692-44.2767-11.7859-65.9656-6.808-13.2111-.6944-29.5248 2.1873-43.3599a5078 5078 0 0 0 1.8749-9.1205q.577-2.8177 1.1653-5.6331c.8204-3.9815 1.5438-7.8992 1.9618-11.9444C437 385 437 385 439 383"/>
  <path fill="#6f8b99" d="M583 383h3q1.4158 6.8232 2.826 13.6475.4776 2.3097.957 4.6191c6.803 32.7832 6.803 32.7832 7.217 42.7334l.2444 1.8489c.546 6.5693-1.887 10.9717-4.8179 16.7348C581.759 483.6931 582.2507 504.7887 583 528c-4.2553-1.3633-7.8086-2.916-11.625-5.25-5.0824-3.0406-10.2439-5.7397-15.586-8.293L553 513l-3.1025-1.4534c-3.142-2.7614-3.3573-3.178-3.8326-7.0827-.1061-1.8874-.1747-3.777-.2133-5.667l-.1073-3.0867c-.0875-3.3212-.112-6.6379-.1193-9.9602l-.0297-3.4079c-.04-20.4275 4.3568-35.4798 15.5954-52.4034 1.9937-3.2382 3.3882-6.417 4.8093-9.9387h2l-.2578-2.4297c.3503-4.8519 2.2228-8.3895 4.3828-12.6953l1.2341-2.5286c1.2018-2.4549 2.4192-4.9014 3.6409-7.3464a6852 6852 0 0 0 1.9336-3.9102A948 948 0 0 1 583 383"/>
  <path fill="#517085" d="M511 506c4.7347 1.6997 8.9617 4.1366 13.3125 6.625l2.2441 1.2734c1.816 1.031 3.63 2.066 5.4434 3.1016.2323 10.014.4097 20.0274.5181 30.0435.052 4.6518.1226 9.3017.2363 13.9523.1091 4.4936.1685 8.9853.1944 13.4801q.0274 2.5642.1085 5.1272c.4066 13.3539.4066 13.3539-3.1809 18.3606-2.5157 2.286-5.051 4.1547-7.8764 6.0363-1.6214 1.3758-3.2285 2.7688-4.8125 4.1875-2.082 1.793-2.082 1.793-4.1875 2.8125-4.9727-.9576-8.5208-4.7866-12.1875-8.0625a1764 1764 0 0 0-3.7305-3.2852l-1.6491-1.469c-1.4432-1.2821-1.4432-1.2821-3.4329-2.1833v-79l18-10z"/>
  <path fill="#5f798b" d="m409 451 3 1c1.0703 2.4219 1.0703 2.4219 2.125 5.75 1.4374 4.4283 2.9711 8.5714 5.0762 12.7244 6.5464 13.157 8.3347 24.8313 8.1919 39.46-.0184 3.4255.0823 6.8352.189 10.259.1814 15.2338.1814 15.2338-2.7962 19.578-3.4045 3.2035-7.442 4.7093-11.7859 6.2286-1.4965.7618-2.9834 1.5432-4.4531 2.3555a398 398 0 0 1-3.7969 1.832c-4.2295 2.0411-8.3943 4.1432-12.4951 6.4348l-2.424 1.3528L388 559a15527 15527 0 0 1-.1036-33.823 6739 6739 0 0 0-.0473-15.7048 4632 4632 0 0 1-.0389-15.1529 1574 1574 0 0 0-.0217-5.7843c-.0145-2.6983-.0165-5.3963-.0156-8.0946l-.0217-2.4216c.0142-3.8117.038-6.8219 2.2488-10.0188 1.629-1.6055 1.629-1.6055 3.5625-3.1875 4.091-3.4477 7.8256-7.1591 11.5547-10.9922C407 452 407 452 409 451"/>
  <path fill="#5f7a8b" d="M613 450c3.8042 1.301 6.1313 2.776 8.918 5.6602l2.1113 2.1543 2.1582 2.248a2077 2077 0 0 0 4.293 4.4102l1.903 1.9768C633.935 468.091 633.935 468.091 636 469v90c-6.8037-3.4019-13.083-6.557-19.4805-10.4844-5.6959-3.4263-11.5693-6.5554-17.5195-9.5156-2.276-57.6539-2.276-57.6539 9.8076-77.7764 1.7727-3.3057 2.434-6.565 3.1924-10.2236z"/>
  <path fill="#294361" d="M492 615c5.007 3.2766 9.2069 6.8602 13.5352 10.9766 2.44 2.003 4.4874 3.0362 7.4648 4.0234l2.8867-2.5195a16524 16524 0 0 1 3.8008-3.293l1.8965-1.6582 1.8652-1.6113 1.698-1.4759c2.1744-1.6924 4.4829-3.0407 6.8528-4.4421.3568 7.7724.6009 15.5427.769 23.3215.0702 2.6418.1655 5.283.2872 7.9229 1.0397 23.1588 1.0397 23.1588-4.024 28.8625-2.8332 2.4875-5.8568 4.3454-9.2387 5.994-2.771 1.389-5.244 3.1416-7.7935 4.8991-4.4266-2.8817-8.6416-5.9487-12.8125-9.1875l-1.7715-1.3652c-4.2654-3.2967-4.2654-3.2967-5.416-4.4473-.0937-1.7493-.1174-3.5024-.1135-5.2542l.0002-3.3972.0156-3.6963.0043-3.7623c.0047-3.306.0137-6.612.0247-9.9181.0103-3.3715.0148-6.743.0199-10.1145.011-6.6191.0278-13.2383.0488-19.8574"/>
  <path fill="#001a26" d="M425 449c.8417 2.3568 1.1095 3.6387.375 6.0625-1.796 2.5306-3.573 3.639-6.375 4.9375l-3-1c2.0526-2.0526 4.1053-4.1023 6.1875-6.125 1.8771-1.7542 1.8771-1.7542 2.8125-3.875"/>
  <path fill="#172333" d="m601 460 2.3125.5c2.7235.5915 2.7235.5915 5.6875.5l-1 5h-3l-2-3-2-1z"/>
  <path fill="#042c2e" d="m610 456 1 3-4 4c-1.5-1.375-1.5-1.375-3-3v-2l4 1z"/>
  <path fill="#112734" d="m413 456 6 4-4 4c-1.2566-2.906-2-4.796-2-8"/>
</svg>